<svg width="146" height="35" viewBox="0 0 146 35" fill="none" xmlns="http://www.w3.org/2000/svg">
<path d="M5.52 24.4V29.488C5.52 29.648 5.6 29.728 5.76 29.728H7.68C7.84 29.728 7.92 29.648 7.92 29.488V20.848L4.128 19.168C3.84 19.072 3.44 18.912 2.928 18.688C2.416 18.432 1.952 18.064 1.536 17.584C1.152 17.104 0.96 16.448 0.96 15.616V4.672C0.96 3.328 1.376 2.256 2.208 1.456C3.04 0.623998 4.128 0.207997 5.472 0.207997H7.968C9.312 0.207997 10.4 0.623998 11.232 1.456C12.064 2.256 12.48 3.328 12.48 4.672V11.776L7.92 11.392V4.912C7.92 4.752 7.84 4.672 7.68 4.672H5.76C5.6 4.672 5.52 4.752 5.52 4.912V14.944L9.312 16.624C9.6 16.752 10 16.928 10.512 17.152C11.024 17.376 11.472 17.728 11.856 18.208C12.272 18.688 12.48 19.344 12.48 20.176V29.728C12.48 31.072 12.064 32.16 11.232 32.992C10.4 33.792 9.312 34.192 7.968 34.192H5.472C4.128 34.192 3.04 33.792 2.208 32.992C1.376 32.16 0.96 31.072 0.96 29.728V24.4H5.52ZM13.9444 4.864V0.399998H27.1444V4.864H22.8244V34H18.2644V4.864H13.9444ZM31.7119 34H27.1519L29.7439 4.864H28.8799L29.3599 0.399998H38.1439L41.1199 34H36.5599L36.0319 28.24H32.2399L31.7119 34ZM32.6239 23.776H35.6479L34.1599 7.072L32.6239 23.776ZM55.0181 19.408V29.728C55.0181 31.072 54.6021 32.16 53.7701 32.992C52.9381 33.792 51.8501 34.192 50.5061 34.192H47.0501C45.7061 34.192 44.6181 33.792 43.7861 32.992C42.9541 32.16 42.5381 31.072 42.5381 29.728V4.672C42.5381 3.328 42.9541 2.256 43.7861 1.456C44.6181 0.623998 45.7061 0.207997 47.0501 0.207997H50.5061C51.8501 0.207997 52.9381 0.623998 53.7701 1.456C54.6021 2.256 55.0181 3.328 55.0181 4.672V15.424L50.4581 14.944V4.912C50.4581 4.752 50.3781 4.672 50.2181 4.672H47.3381C47.1781 4.672 47.0981 4.752 47.0981 4.912V29.488C47.0981 29.648 47.1781 29.728 47.3381 29.728H50.2181C50.3781 29.728 50.4581 29.648 50.4581 29.488V19.408H55.0181ZM57.1688 34V4.864H56.4488L56.9288 0.399998H61.7288V9.76L65.9048 0.399998H70.9448L64.8968 13.936L71.4248 34H66.3848L61.7288 19.696V34H57.1688ZM78.9735 24.208L81.4215 21.76H72.3975V17.296H81.3735L78.9735 14.896L81.7575 12.16L89.1495 19.552L81.7575 26.944L78.9735 24.208ZM90.5738 4.864L91.0538 0.399998H98.6378C99.9818 0.399998 101.07 0.815998 101.902 1.648C102.734 2.448 103.15 3.52 103.15 4.864V19.888C103.15 20.592 103.006 21.232 102.718 21.808C102.43 22.352 102.046 22.816 101.566 23.2L104.638 34H100.03L97.2938 24.352H95.8538V34H91.2938V4.864H90.5738ZM98.3498 4.864H95.8538V19.888H98.3498C98.5098 19.888 98.5898 19.808 98.5898 19.648V5.104C98.5898 4.944 98.5098 4.864 98.3498 4.864ZM116.481 29.536L116.097 34H105.585V4.864H104.865L105.345 0.399998H116.481L116.001 4.864H110.145V14.944H115.521L115.041 19.408H110.145V29.536H116.481ZM122.228 34H117.668L120.26 4.864H119.396L119.876 0.399998H128.66L131.636 34H127.076L126.548 28.24H122.756L122.228 34ZM123.14 23.776H126.164L124.676 7.072L123.14 23.776ZM145.534 29.536C145.534 30.88 145.118 31.968 144.286 32.8C143.454 33.6 142.366 34 141.022 34H133.054V4.864H132.334L132.814 0.399998H141.022C142.366 0.399998 143.454 0.815998 144.286 1.648C145.118 2.448 145.534 3.52 145.534 4.864V29.536ZM140.734 4.864H137.614V29.536H140.734C140.894 29.536 140.974 29.456 140.974 29.296V5.104C140.974 4.944 140.894 4.864 140.734 4.864Z" fill="white"/>
</svg>
