<svg width="99" height="98" viewBox="0 0 99 98" fill="none" xmlns="http://www.w3.org/2000/svg">
<rect width="99" height="98" rx="20" fill="#2E78CC"/>
<path d="M22.27 65.56L27.88 59.95H7.2V49.72H27.77L22.27 44.22L28.65 37.95L45.59 54.89L28.65 71.83L22.27 65.56ZM48.8539 21.23L49.9539 11H67.3339C70.4139 11 72.9072 11.9533 74.8139 13.86C76.7206 15.6933 77.6739 18.15 77.6739 21.23V55.66C77.6739 57.2733 77.3439 58.74 76.6839 60.06C76.0239 61.3067 75.1439 62.37 74.0439 63.25L81.0839 88H70.5239L64.2539 65.89H60.9539V88H50.5039V21.23H48.8539ZM66.6739 21.23H60.9539V55.66H66.6739C67.0406 55.66 67.2239 55.4767 67.2239 55.11V21.78C67.2239 21.4133 67.0406 21.23 66.6739 21.23Z" fill="white"/>
</svg>
